# xmcd
#
# Track frame offsets:
#	150
#	11696
#	30043
#	43859
#	60689
#	75978
#	88706
#	100505
#	112127
#	124897
#	145485
#	158119
#	170311
#
# Disc length: 2446 seconds
#
# Revision: 1
# Processed by: cddbd v1.5.2PL0 Copyright (c) Steve Scherf et al.
# Submitted via: audiograbber 1.83.01
#
DISCID=9d098c0d
DTITLE=Sivert Bjørdal - Pure Country
DYEAR=2006
DGENRE=Country
TTITLE0=I aint gonna love you anymore
TTITLE1=There's no room in my heart
TTITLE2=Sundown and sorrow
TTITLE3=Memories
TTITLE4=It just don't matter now
TTITLE5=Why should I cry
TTITLE6=Low down blues
TTITLE7=You better keep it on your mind
TTITLE8=I don't care if tomorrow never comes
TTITLE9=Wings of love
TTITLE10=Cold cold heart
TTITLE11=I could never be ashamed of you
TTITLE12=Weary blues from waiting
EXTD=
EXTT0=
EXTT1=
EXTT2=
EXTT3=
EXTT4=
EXTT5=
EXTT6=
EXTT7=
EXTT8=
EXTT9=
EXTT10=
EXTT11=
EXTT12=
PLAYORDER=
